<svg id="Layer_1" data-name="Layer 1" xmlns="http://www.w3.org/2000/svg" viewBox="0 0 420.52 499.22"><defs><style>.cls-1{fill:#fff;}</style></defs><title>pusheen</title><path class="cls-1" d="M473.07,28.55H893.59V527.77H473.07Zm50.58,289.86c-1.09.81-2,1.49-2.88,2.15a17.55,17.55,0,0,0-6.81,9.57c-2.08,7.26,2.76,13.81,10.31,13.9,1.94,0,3.89-.23,6.12-.38a66.93,66.93,0,0,0,.07,7.88c.31,2.54-.62,3.61-2.92,4.55-6,2.44-7.8,7.38-5.61,13.49a4.68,4.68,0,0,1-.53,3.34c-2.29,4.22-2.28,8.47-.85,12.94a5.32,5.32,0,0,1-.36,3.57c-1.87,3.9-2.75,7.87-.34,11.69,1.31,2.08,1.25,3.52.21,5.66-1.93,4-2.65,8.38.43,12.1,1.52,1.83,4,2.85,6.38,4.44.24,2,1.06,4.71.72,7.25s-1.86,4.74-2.82,7.12a17,17,0,0,0-.88,2.7c-2.84,12.86,2.66,24.25,14.58,30.42a64,64,0,0,0,25.61,7.33c31.21,1.88,62.43,4,93.68,4.77,25.54.66,51.12-.29,76.69-.71,15.3-.25,30.62-.54,45.89-1.38,10.41-.58,20.82-1.85,31.14-3.35,10-1.47,19.12-5.33,26.69-12.48,9.14-8.62,12.57-23.42,5.17-34.85a29.32,29.32,0,0,1-1.37-2.67c8.27-3.56,10.85-8.73,7.89-17a3.59,3.59,0,0,1,.33-2.89c4.28-5.77,3.5-11.28-.39-16.85a3.6,3.6,0,0,1-.28-3,16,16,0,0,0-6.23-20.1c-.57-.35-1.36-1-1.37-1.52-.05-2.73.08-5.48.25-8.21a2,2,0,0,1,.88-1.32c4.69-2.79,5.64-7.4,5.93-12.27A3.35,3.35,0,0,1,851.1,341c3.91-1.88,5.54-5.29,5.8-9.45s-1.32-7.69-3.66-10.86-4.85-5.8-7.35-8.75a2.91,2.91,0,0,1,.35-.61c8.56-9.47,8-21.05,2.92-31.67-1.07-2.25-2.7-3-5.11-1.78-2.77,1.44-3.19,1.14-3.56-2.11-.32-2.81-2.09-3.74-4.58-2.39-.5.27-.93.77-1.45.88-1.05.23-2.28.61-3.17.26-.49-.2-.69-1.79-.58-2.7.46-3.85.27-4.13-3.33-5.25a4.37,4.37,0,0,1-2.55-1.87c-.23-.5.74-1.8,1.44-2.45,2.91-2.71,2.88-3.65.06-6.42a3.76,3.76,0,0,1-1.07-3.05,4.56,4.56,0,0,1,2.57-2.18,9.76,9.76,0,0,1,3.1-.16c2.78-.13,3.9-1.8,2.78-4.41a25.15,25.15,0,0,0-2.79-5.28c-5.53-7.33-11.08-14.65-16.87-21.77-1.39-1.71-1.24-2.7-.36-4.43,1.69-3.28,3.74-6.6,4.39-10.13,1.72-9.32,3.41-18.72,4-28.16.83-14.35-1.88-28.39-5.88-42.17-.35-1.21-.54-2.47-.83-3.85a19.72,19.72,0,0,1,2.07-.14c5.88.31,11.76.6,17.63,1,2.14.14,4.4.18,4.65-2.42.22-2.35-1.79-3-3.89-3.17-4.74-.32-9.46-.76-14.2-1-2.73-.15-5.47,0-8.22,0l-1.24-4.35,2-.9c6.65-3.07,13.85-3.1,20.93-3.71,2.1-.18,3.52-.87,3.33-3.26s-2.07-2.58-3.77-2.45a130.4,130.4,0,0,0-13,1.44c-3.88.7-7.65,2-11.55,3-2-4.58-3.79-9.21-6.11-13.54C800,93.37,796.13,85.9,791.4,79c-5.68-8.24-15.74-8.3-22-.58-3.05,3.75-5.69,7.84-8.41,11.85a4.49,4.49,0,0,1-4.19,2.25c-6.56-.06-13.12,0-19.68.25A5.57,5.57,0,0,1,731.52,90a97,97,0,0,0-9.28-12.6c-6.08-6.65-14.67-6.2-20.18.9a153.09,153.09,0,0,0-8.72,13c-1,1.64-1.84,2.44-4,2a164.3,164.3,0,0,0-35.75-2.8c-16.26.5-32.17,2.77-47.38,8.89-14.18,5.71-26.72,13.67-36,26.08a109.57,109.57,0,0,0-16,31.38c-.72,2.15-1.7,2.78-3.88,2.43-7.6-1.21-14.21-4.19-19-10.4-2.21-2.85-4.2-5.87-6.37-8.76-2.33-3.11-4.56-6.33-8.43-7.84-5.64-2.2-11.15.61-12.6,6.48-1.23,5-.06,9.66,2.39,14,9.19,16.23,22.95,26.34,41.21,30.16,2.25.47,2.94,1.28,2.8,3.55a90.21,90.21,0,0,0,4.29,34.59,3.6,3.6,0,0,1-1,3c-4.62,4.37-9.73,8.28-14,12.93-11.11,12-20.4,25.21-23.79,41.55C512.88,292.62,512,306.6,523.65,318.41Z" transform="translate(-473.07 -28.55)"/><path d="M523.65,318.41c-11.68-11.81-10.77-25.79-7.85-39.87C519.2,262.2,528.49,249,539.6,237c4.31-4.65,9.41-8.56,14-12.93a3.6,3.6,0,0,0,1-3,90.21,90.21,0,0,1-4.29-34.59c.14-2.28-.55-3.08-2.8-3.55-18.26-3.82-32-13.93-41.21-30.16-2.45-4.33-3.62-9-2.39-14,1.44-5.87,7-8.67,12.6-6.48,3.87,1.51,6.09,4.73,8.43,7.84,2.17,2.89,4.15,5.91,6.37,8.76,4.82,6.21,11.42,9.19,19,10.4,2.18.35,3.16-.28,3.88-2.43a109.57,109.57,0,0,1,16-31.38c9.3-12.41,21.83-20.37,36-26.08,15.21-6.12,31.11-8.39,47.38-8.89a164.3,164.3,0,0,1,35.75,2.8c2.15.41,3-.39,4-2a153.09,153.09,0,0,1,8.72-13c5.51-7.1,14.09-7.54,20.18-.9A97,97,0,0,1,731.52,90a5.57,5.57,0,0,0,5.57,2.84c6.55-.25,13.12-.31,19.68-.25A4.49,4.49,0,0,0,761,90.32c2.72-4,5.36-8.1,8.41-11.85,6.29-7.73,16.35-7.67,22,.58,4.72,6.86,8.6,14.32,12.55,21.68,2.32,4.32,4.07,9,6.11,13.54,3.89-1,7.67-2.34,11.55-3a130.4,130.4,0,0,1,13-1.44c1.7-.13,3.58.05,3.77,2.45s-1.23,3.08-3.33,3.26c-7.09.61-14.28.64-20.93,3.71l-2,.9,1.24,4.35c2.75,0,5.49-.12,8.22,0,4.74.25,9.47.69,14.2,1,2.1.14,4.11.82,3.89,3.17-.25,2.6-2.51,2.56-4.65,2.42-5.87-.39-11.75-.68-17.63-1a19.72,19.72,0,0,0-2.07.14c.29,1.38.48,2.64.83,3.85,4,13.78,6.71,27.81,5.88,42.17-.54,9.44-2.23,18.84-4,28.16-.65,3.53-2.7,6.85-4.39,10.13-.89,1.73-1,2.73.36,4.43,5.79,7.12,11.35,14.44,16.87,21.77a25.15,25.15,0,0,1,2.79,5.28c1.12,2.6,0,4.28-2.78,4.41a9.76,9.76,0,0,0-3.1.16,4.56,4.56,0,0,0-2.57,2.18,3.76,3.76,0,0,0,1.07,3.05c2.82,2.76,2.85,3.71-.06,6.42-.7.65-1.67,2-1.44,2.45a4.37,4.37,0,0,0,2.55,1.87c3.6,1.12,3.79,1.39,3.33,5.25-.11.91.09,2.5.58,2.7.89.35,2.12,0,3.17-.26.52-.11,1-.61,1.45-.88,2.49-1.35,4.26-.43,4.58,2.39.37,3.25.79,3.54,3.56,2.11,2.41-1.25,4-.47,5.11,1.78,5.07,10.61,5.64,22.19-2.92,31.67a2.91,2.91,0,0,0-.35.61c2.5,3,5.11,5.72,7.35,8.75s3.91,6.76,3.66,10.86-1.89,7.57-5.8,9.45a3.35,3.35,0,0,0-2.12,3.26c-.29,4.87-1.24,9.48-5.93,12.27a2,2,0,0,0-.88,1.32c-.17,2.73-.3,5.47-.25,8.21,0,.52.79,1.17,1.37,1.52a16,16,0,0,1,6.23,20.1,3.6,3.6,0,0,0,.28,3c3.9,5.57,4.67,11.08.39,16.85a3.59,3.59,0,0,0-.33,2.89c3,8.31.38,13.49-7.89,17a29.32,29.32,0,0,0,1.37,2.67c7.4,11.44,4,26.24-5.17,34.85-7.57,7.14-16.64,11-26.69,12.48-10.33,1.51-20.73,2.78-31.14,3.35-15.28.85-30.59,1.13-45.89,1.38-25.56.42-51.15,1.37-76.69.71-31.25-.81-62.47-2.9-93.68-4.77a64,64,0,0,1-25.61-7.33c-11.93-6.17-17.42-17.56-14.58-30.42a17,17,0,0,1,.88-2.7c1-2.38,2.5-4.66,2.82-7.12s-.48-5.23-.72-7.25c-2.36-1.59-4.86-2.6-6.38-4.44-3.08-3.72-2.36-8.1-.43-12.1,1-2.13,1.1-3.58-.21-5.66-2.41-3.82-1.53-7.79.34-11.69a5.32,5.32,0,0,0,.36-3.57c-1.43-4.47-1.44-8.72.85-12.94a4.68,4.68,0,0,0,.53-3.34c-2.2-6.11-.36-11,5.61-13.49,2.3-.94,3.23-2,2.92-4.55a66.93,66.93,0,0,1-.07-7.88c-2.23.15-4.18.4-6.12.38-7.55-.09-12.38-6.63-10.31-13.9a17.55,17.55,0,0,1,6.81-9.57C521.68,319.9,522.57,319.22,523.65,318.41Zm206.92-90.23c0,.85,0,1.5,0,2.15-.3,7.18-7.44,11-13.5,7.18a16.54,16.54,0,0,1-3.47-2.92c-6.52-7.3-14.74-11.94-23.86-15-26.45-9-53.72-10.83-81.38-9.14-32.58,2-57.48,17.22-75.83,43.85-8,11.62-13.18,24.18-13.29,38.47a44.92,44.92,0,0,0,.92,9.33c2.07,10.06,9.11,14.78,18.53,17,14.15,3.33,28.61,4.24,43,4.88,30,1.34,60,2.62,90.08,2.94,47,.5,94-.12,140.44-8.4,8.33-1.48,16.6-3.05,24.33-6.84,10.54-5.17,12.94-16,9.41-25.69-.52-1.42-1.27-1.59-2.66-1.83a16.59,16.59,0,0,1-6.44-2.36,6.12,6.12,0,0,0-4-1.42c-4.26.15-6.82-2.15-7.84-6.35a5.92,5.92,0,0,0-2-3.08c-3.59-2.73-4.42-5.68-2.88-10a6.41,6.41,0,0,0,0-4,8.63,8.63,0,0,1,4.33-11.06c.74-.37,1.52-.66,3-1.28L817,231.17c-.83.68-1.21.94-1.54,1.26-4,3.8-8.5,4-12.76.5a22.66,22.66,0,0,1-4.24-4.2c-1.35-1.93-2.92-2.19-5.1-2.09-13.19.61-26.39,1.14-39.59,1.5C746.15,228.35,738.55,228.18,730.57,228.18ZM560,219.58c1.45-.77,2.55-1.31,3.61-1.91,12.26-7,25.59-10.72,39.51-12.13A220.11,220.11,0,0,1,681,211.29c14.08,3.64,27.26,9.05,37.19,20.35a4,4,0,0,0,1.76,1.4c1.21.26,2.8.63,3.68.08a4,4,0,0,0,1.46-3.32,10.46,10.46,0,0,0-2.12-4.15c-.58-.81-1.86-1.16-2.35-2s-.83-2.29-.41-3a3.31,3.31,0,0,1,2.81-1.07c1.13.19,2.09,1.22,3.2,1.73a9.48,9.48,0,0,0,3.61,1.26c21.76.06,43.56,1.29,65.25-1.48a6,6,0,0,1,5.93,2.4,47.17,47.17,0,0,0,5.55,5.7,3.19,3.19,0,0,0,4.83-.37,5.06,5.06,0,0,0,.14-4.3A11.41,11.41,0,0,0,808,221c-2.69-2.11-2.72-2.68-1.14-5.66,2.27-4.26,4.93-8.46,6.24-13a103.33,103.33,0,0,0,3.51-34.19c-1.13-21.26-7-41.39-15.63-60.68a209.86,209.86,0,0,0-13.43-24.45c-3.86-6.24-10-6.16-14.49-.38-1.92,2.47-3.68,5.08-5.48,7.65-2.59,3.7-5.55,7.18-4.71,12.3.34,2.06-1.21,3.32-3.3,3.53a3.43,3.43,0,0,1-4.14-3c-.31-1.56-.46-3.15-.68-4.77h-3.94c-.54,3.17,1,7.52-3.8,7.87-5.51.4-3.75-4.73-4.79-7.86l-3.83.27a23.19,23.19,0,0,1-.06,4.28,4.93,4.93,0,0,1-1.52,2.83c-2.77,2.08-5.85.4-6.23-3.25-.19-1.77.18-3.91-.69-5.24-3.6-5.47-7.37-10.86-11.47-16-3.52-4.37-8.86-4.08-12.07.49-3.49,5-6.78,10.1-9.89,15.31-1.23,2.07-2.59,2.77-4.85,2.34-4.11-.78-8.22-1.54-12.36-2.12-3.52-.49-7.07-.71-10.54-1-1.9,9.38-5.45,13.48-12.23,13.64a17.38,17.38,0,0,1-7.85-1.87c-4.38-2.19-5.63-6.6-6.18-11.37l-6.65.86c0,10.7-2.2,15-9.09,16.62a17.81,17.81,0,0,1-8.33-.41c-4.66-1.26-6.53-5.44-8.07-9.52a4.92,4.92,0,0,0-1.1.08c-1.16.43-2.31.88-3.45,1.34-26.75,10.87-41.26,32.05-47.68,59-2.5,10.47-1.95,21.72-2.2,32.63A60,60,0,0,0,560,219.58ZM532.15,425.39c0,5.66,4.73,9.19,10.11,7.43a15.64,15.64,0,0,0,2.84-1.3c4.56-2.6,4.56-2.61,6.86,2.07,2.63,5.34,11.54,6.55,15.44,2.15,1.25-1.42,2.72-2.65,4.1-4a42.53,42.53,0,0,1,3.84,4.52c3.25,5.06,10.74,5.46,14,.7,1-1.47,1.08-4,3.64-3.84,2.73.17,2.79,2.81,3.69,4.56a6.74,6.74,0,0,0,11.68,1c.79-1.06,1.35-2.29,2.08-3.4,1.62-2.47,3.48-2.42,5,.12.68,1.14,1.07,2.6,2,3.41,1.58,1.36,3.39,3,5.31,3.32,5.78,1,7.58-.45,9.47-6.18a3.46,3.46,0,0,1,2.18-2.12c.82-.1,1.87.84,2.66,1.52a4.33,4.33,0,0,1,.85,1.78,8.1,8.1,0,0,0,7.57,5.55c3.65.27,6.37-1.37,8.32-4.47.93-1.48.81-4.1,3.48-3.91s2.61,2.75,3.36,4.45c1.79,4.09,5.17,5.38,9.21,5.48,3.7.09,6.15-2,7.88-5.91.55-1.25,1.82-2.19,2.75-3.27,1,1.11,2.46,2,3,3.36,2,4.52,4.55,6.3,9.44,6.2,4-.09,6-2.63,7.75-5.81.71-1.3,2-3,3.21-3.09,1-.08,2.53,1.65,3.22,2.91,1.73,3.17,4,5.34,7.78,5.31a9.65,9.65,0,0,0,8.72-5c.58-1,1.06-2,1.7-3a2.65,2.65,0,0,1,4.52-.27c.72.86,1,2.11,1.71,2.93,1.09,1.2,2.27,2.61,3.7,3.14,3.65,1.33,6.23-.28,8.35-4.35.54-1,1.71-2.4,2.65-2.44s2.17,1.18,3.14,2a6.34,6.34,0,0,1,1,1.71,5.88,5.88,0,0,0,9.4,1,19.59,19.59,0,0,0,2-2.8c2.42-3.77,4.34-3.79,6.74,0,3.46,5.38,9.14,5.16,12.32-.48,2.44-4.33,4.84-4.52,7.47-.31,1.91,3.07,4.62,3.63,7.83,3.49,3-.14,4.41-2.11,5.47-4.65,1.58-3.76,3.54-3.9,6.28-.76a9.49,9.49,0,0,0,3.44,2.78c4.76,1.79,8.37.12,10.56-4.57,1.3-2.77,2.73-3,5-.94.77.71,1.46,1.51,2.27,2.16a4.65,4.65,0,0,0,5.82.24c2-1.25,2.37-3.13,1.71-5.24-.43-1.35-1.12-2.62-1.57-4-.76-2.33.31-3.67,2.78-3.58.76,0,1.51.19,2.27.24a5,5,0,0,0,5.56-5.09c.14-3-1.47-4.92-3.52-6.8A4,4,0,0,1,841,406.3c.16-.73,1.62-1.58,2.56-1.66,2.81-.24,3.71-2,4-4.36.4-3.62-1.4-6.4-5-8.45a4.3,4.3,0,0,1-2.12-2.59c-.09-.73,1.14-1.69,1.88-2.46,1-1,2.44-1.72,3-2.89,2.15-4.84-2.6-12.21-7.9-12.34-2.36-.06-4.74.3-7.11.44-24.9,1.48-49.66,4.34-74,9.6-20.88,4.51-41.5,10.27-62.17,15.72a40.33,40.33,0,0,1-19.7.57c-7.87-1.8-15.73-3.71-23.68-5.14-24.41-4.4-48.8-8.93-73.3-12.74-16-2.49-32.27-3.82-48.42-5.64a3.61,3.61,0,0,0-2.16.26c-2.5,1.58-2.82,7.47-.6,9.48,3.56,3.23,3.56,3.3,0,6.37s-3.25,7.88.72,10.09c1.21.67,3,2.08,2.89,2.92-.16,1.22-1.68,2.45-2.89,3.28a7.54,7.54,0,0,0-3,7.44c.73,2.85,3.07,2.68,5.28,2.69.29,0,.57,0,.86,0,2.57.23,3.47,1.45,3,4ZM570.95,440c-7.89,5.32-16.41,4.86-21.78-1.38-1.53-1.77-2.77-1.39-4.65-1.14a27.48,27.48,0,0,1-9.16,0c-4.19-.89-4.88-.9-6.2,3.29a16.63,16.63,0,0,0-.67,3.92C527.84,455,532.8,462.46,543,467a73.84,73.84,0,0,0,25.37,6.15c23.15,1.46,46.3,3.12,69.48,3.82s46.2.55,69.29.36c21-.18,42-.77,63-1.45,12.91-.42,25.85-.72,38.6-3.31,8.94-1.82,17.58-4.15,24.6-10.45,6.46-5.81,9.54-12.9,8.38-21.62a22.48,22.48,0,0,0-1-3.6c-2.82,1.19-5.18,2.85-7.66,3.06s-5.24-1-8-1.62c-5.67,5.43-10.92,6-19.77,1.78-6.68,6.36-11.42,6.6-20.5,1-8,6.35-11,6.52-19.73,1.12-7.31,6.1-10.51,6.33-18.46,1.32-8.85,5.51-11.08,5.48-19.12-.21-6.54,7.16-16.08,8.25-23.35,1.11-7,7.47-15.6,7.38-23.5.68-11.11,6.33-14.76,6.1-23.93-1.58-7,6.43-14.2,6-21.53-.07-3,3.53-7,4.36-11.34,4.34-4.61,0-8.13-2.21-10.92-5.7-6.55,6.66-14.06,6.23-20.28.06C583,447.32,578.32,446.87,570.95,440ZM843.49,336.75c6.82.2,9.79-3.65,7.32-9-1.56-3.36-4.2-6.23-6.41-9.29-2-2.83-4.47-3.45-7.42-1.25a10.6,10.6,0,0,1-2.61,1.12c-12.2,4.6-25.08,6.1-37.85,8-27.8,4.16-55.84,5.2-83.88,5.72-47.17.88-94.31.09-141.38-3.45-13.74-1-27.53-1.84-40.68-6.57a3.35,3.35,0,0,0-1.65-.19c-3.6.66-9.4,6.5-10.11,10.13s1.26,6.34,4.88,6.49a18.38,18.38,0,0,0,5-.68c3-.74,6-1.75,9.05-2.46a15,15,0,0,1,13.82,3.48c2.45,2.11,4.78,4.35,7.21,6.47,5.22,4.56,9.75,4.91,15.55,1.2,2.56-1.64,5.06-3.38,7.6-5,7.57-5,14.24-4.23,20.91,1.81,2.92,2.65,6.08,5.44,9.65,6.87,6,2.39,11.79.67,17-2.89,7.29-5,12.95-4.94,20.24-.18a34.27,34.27,0,0,0,8.7,4.16c5.11,1.54,9.59.25,13.45-3.79,8-8.38,16.32-10.31,25.41-6a34.72,34.72,0,0,1,6.58,4.44c5.09,4,10.54,5,16.5,2.25a31.19,31.19,0,0,0,4.6-2.82c5.15-3.62,10.41-3.74,15.77-.59,2.21,1.3,4.33,2.76,6.48,4.15,3.87,2.5,7.57,2.11,10.76-1.2,1.32-1.37,2.51-2.86,3.85-4.2,5.66-5.64,9.68-6.54,17-3.36,3.82,1.67,7.38,3.92,11.12,5.77,7.7,3.81,14.14,2.92,20.42-2.87,6.81-6.27,14.64-8.89,23.86-7.25C837.58,336.32,841,336.49,843.49,336.75Zm-7,22c-14.05,1.31-27.84,2.76-41.66,3.83-26.33,2-52.63,4.93-79.11,4.29-6.08-.15-12.18-.23-18.21-.87-2.8-.3-5.48-2.63-8.21-2.62s-5.42,2.28-8.25,2.67c-5.82.8-11.72,1.19-17.61,1.41a652.86,652.86,0,0,1-71.51-.81c-11.56-.84-23.16-1.1-34.69-2.19a137.43,137.43,0,0,1-21-3.87c-2.79-.71-5.14-.75-7.21.75a7,7,0,0,0-2.75,4.45c-.18,2.14,1.86,3.13,3.9,3.39,4.71.62,9.43,1.16,14.14,1.74,19.23,2.4,38.57,4.14,57.66,7.36,24,4,47.73,9.28,71.59,14,5.13,1,10.24,2.2,15.5.78C693,392,697,391,701,390c25.44-6.69,50.68-14.33,76.89-17.58,17.72-2.19,35.48-4,53.25-5.82C836.67,366,838.18,364.21,836.47,358.77ZM686.82,344.46a22.7,22.7,0,0,0-11.34,6.8c-5.24,5.77-11.76,7.27-18.94,4.91a47,47,0,0,1-10.88-5.5c-3.12-2-6.12-2.5-9.41-1.14a25.21,25.21,0,0,0-4.64,2.73,22.59,22.59,0,0,1-28-1.21c-2-1.66-3.93-3.32-5.71-5.16a7.23,7.23,0,0,0-7.55-2.1,29.3,29.3,0,0,0-6.48,2.78c-2.89,1.64-5.54,3.68-8.4,5.36a15.59,15.59,0,0,1-18.58-1.4c-2.2-1.8-4.14-3.93-6.34-5.73-1.82-1.49-3.7-3.36-5.84-3.91a16.2,16.2,0,0,0-8,.28c-.75.21-.76,3.31-1,5.1a27.14,27.14,0,0,0-.11,4c.14,4.72.53,5.56,5.14,6.34,8,1.35,16,2.67,24,3.27a900.23,900.23,0,0,0,93.18,2.44c7.69-.23,15.36-.92,23-1.63,4.55-.42,5.52-1.52,5.85-6.13C687,351.38,686.82,348.15,686.82,344.46Zm156.45-2.36c-3.24-.35-6.57-.48-9.8-1.1-7.63-1.47-14.3.44-19.59,5.93-6.9,7.15-18.28,8.23-27.08,3.22-3.62-2.06-7.4-3.86-11.15-5.69s-6.85-.73-9.55,2.06c-1.45,1.5-2.75,3.14-4.17,4.68a13.15,13.15,0,0,1-17.52,2.15c-1.9-1.26-3.73-2.62-5.66-3.83-4.06-2.56-7.21-2.43-11.08.33-10.12,7.23-18.73,6.9-28.27-.89-1.89-1.54-4.19-2.59-7-4.27,0,2.69,0,4.38,0,6.07-.09,9.39.39,10.27,9.75,10.38,15.67.19,31.36.32,47-.37,16.22-.71,32.41-2.25,48.59-3.71q19.29-1.75,38.51-4.25C842.44,352,844.38,348.65,843.27,342.1ZM528.16,153.6l-6-7.89-10.47,6.52,7.83,9.71c2.17-2,4-3.65,5.76-5.35C526.27,155.69,527.13,154.69,528.16,153.6Zm3,17.85c3.92,1.55,7.22,3,10.61,4.1a2.54,2.54,0,0,0,2.15-1.24c1.1-3.19,2-6.47,2.93-9.87-2.66-.91-5-1.78-7.46-2.49a1.94,1.94,0,0,0-1.67.55C535.62,165.27,533.61,168.11,531.18,171.46Z" transform="translate(-473.07 -28.55)"/><path class="cls-1" d="M730.57,228.18c8,0,15.58.17,23.17,0,13.2-.36,26.4-.9,39.59-1.5,2.19-.1,3.75.16,5.1,2.09a22.66,22.66,0,0,0,4.24,4.2c4.26,3.52,8.73,3.29,12.76-.5.33-.31.7-.58,1.54-1.26l10.46,13.41c-1.47.63-2.25.91-3,1.28a8.63,8.63,0,0,0-4.33,11.06,6.41,6.41,0,0,1,0,4c-1.54,4.33-.71,7.28,2.88,10a5.92,5.92,0,0,1,2,3.08c1,4.2,3.58,6.5,7.84,6.35a6.12,6.12,0,0,1,4,1.42,16.59,16.59,0,0,0,6.44,2.36c1.39.23,2.14.4,2.66,1.83,3.53,9.65,1.13,20.52-9.41,25.69-7.72,3.79-16,5.36-24.33,6.84-46.48,8.28-93.46,8.9-140.44,8.4-30-.32-60.07-1.6-90.08-2.94-14.41-.65-28.86-1.55-43-4.88-9.42-2.22-16.46-6.94-18.53-17a44.92,44.92,0,0,1-.92-9.33c.11-14.29,5.28-26.85,13.29-38.47,18.36-26.63,43.25-41.86,75.83-43.85,27.66-1.69,54.93.14,81.38,9.14,9.12,3.1,17.33,7.74,23.86,15a16.54,16.54,0,0,0,3.47,2.92c6.06,3.82,13.21,0,13.5-7.18C730.6,229.68,730.57,229,730.57,228.18Zm-111.79,9.09c-.63-6.42-7.49-10.58-12.7-7.3-4.39,2.76-8.32,6.27-12.37,9.56a8.87,8.87,0,0,0-2.14,3c-2.27,4.63.58,10,5.71,10.28a13.84,13.84,0,0,0,7.29-1.69,63.74,63.74,0,0,0,10.48-7.81C616.73,241.78,617.57,239.31,618.78,237.27Zm38.13,38c0-4.71-2.12-8-5.35-9.21a7.64,7.64,0,0,0-9.42,3.34,80.29,80.29,0,0,0-6,14c-1.14,3.51,1.14,7.67,4.12,9.21a8.25,8.25,0,0,0,9.68-1.74C654,286.21,655.6,280.33,656.92,275.31Zm58.61-19.87c.6,6,5.9,9.72,11.63,7.34a59.4,59.4,0,0,0,12.42-7.31,8.09,8.09,0,0,0-8.58-13.7,69.5,69.5,0,0,0-12,7.5C717.29,250.62,716.65,253.34,715.53,255.44Zm-168.24,7.69a7.64,7.64,0,0,0-7.61,9.64,30.7,30.7,0,0,0,9.39,14.35,8,8,0,0,0,10.48.52c3-2.29,4-6.4,1.9-10.3a86.49,86.49,0,0,0-6.8-10.49A9.6,9.6,0,0,0,547.28,263.13ZM806,282c-.54-1.49-.76-3.21-1.67-4.42a33.65,33.65,0,0,0-13.06-10.71c-3.7-1.66-8.19-.4-10.09,2.28a7.92,7.92,0,0,0,1,10.67,58.3,58.3,0,0,0,11.7,8.89A8.24,8.24,0,0,0,806,282Z" transform="translate(-473.07 -28.55)"/><path class="cls-1" d="M560,219.58a60,60,0,0,1-4.19-22.39c.25-10.91-.3-22.17,2.2-32.63,6.42-26.92,20.92-48.1,47.68-59,1.14-.46,2.29-.92,3.45-1.34a4.92,4.92,0,0,1,1.1-.08c1.54,4.08,3.41,8.26,8.07,9.52a17.81,17.81,0,0,0,8.33.41c6.89-1.6,9.09-5.92,9.09-16.62l6.65-.86c.55,4.76,1.8,9.17,6.18,11.37a17.38,17.38,0,0,0,7.85,1.87c6.78-.16,10.34-4.25,12.23-13.64,3.46.33,7,.55,10.54,1,4.14.58,8.25,1.34,12.36,2.12,2.27.43,3.62-.27,4.85-2.34,3.11-5.21,6.4-10.34,9.89-15.31,3.21-4.57,8.55-4.87,12.07-.49,4.11,5.1,7.87,10.49,11.47,16,.87,1.33.51,3.47.69,5.24.39,3.66,3.46,5.33,6.23,3.25a4.93,4.93,0,0,0,1.52-2.83,23.19,23.19,0,0,0,.06-4.28l3.83-.27c1,3.13-.72,8.26,4.79,7.86,4.76-.34,3.27-4.7,3.8-7.87h3.94c.23,1.62.37,3.21.68,4.77a3.43,3.43,0,0,0,4.14,3c2.09-.21,3.63-1.47,3.3-3.53-.83-5.12,2.12-8.6,4.71-12.3,1.8-2.57,3.56-5.17,5.48-7.65,4.49-5.78,10.63-5.87,14.49.38A209.86,209.86,0,0,1,801,107.4c8.63,19.29,14.5,39.42,15.63,60.68a103.33,103.33,0,0,1-3.51,34.19c-1.31,4.57-4,8.77-6.24,13-1.58,3-1.56,3.54,1.14,5.66a11.41,11.41,0,0,1,3.49,3.62,5.06,5.06,0,0,1-.14,4.3,3.19,3.19,0,0,1-4.83.37,47.17,47.17,0,0,1-5.55-5.7,6,6,0,0,0-5.93-2.4c-21.69,2.78-43.49,1.54-65.25,1.48a9.48,9.48,0,0,1-3.61-1.26c-1.11-.51-2.07-1.54-3.2-1.73a3.31,3.31,0,0,0-2.81,1.07c-.42.68-.08,2.13.41,3s1.77,1.19,2.35,2a10.46,10.46,0,0,1,2.12,4.15,4,4,0,0,1-1.46,3.32c-.88.55-2.46.18-3.68-.08a4,4,0,0,1-1.76-1.4c-9.93-11.3-23.11-16.71-37.19-20.35a220.11,220.11,0,0,0-77.81-5.76c-13.92,1.41-27.25,5.13-39.51,12.13C562.58,218.27,561.48,218.81,560,219.58Zm120.46-89,0,.24c2.84.15,5.69.31,8.53.43,1.92.08,3.87-.11,4-2.54s-1.55-3-3.59-3.1a95.08,95.08,0,0,0-9.67-.45c-5.77.33-11.52,1-17.28,1.62-1.83.19-3,1.23-2.83,3.23s1.81,2.44,3.55,2.36c.75,0,1.5-.23,2.25-.3Zm-13.93-20.11-.14.54c-1,0-2.08,0-3.12,0-1.81,0-3.55.32-3.59,2.67s1.49,2.81,3.39,2.95a78.48,78.48,0,0,1,8.49.73c5.87,1.06,11.68,2.42,17.52,3.59,1.7.34,3.36.13,3.8-1.93s-.68-3-2.51-3.44Q678.49,113,666.56,110.48Zm89.51,22.84c.92-.12,1.3-.15,1.67-.23,2.11-.45,4.38-1,4-3.79s-2.58-2.43-4.62-1.91-2.68-.89-3-2.48c-.23-1.4-.12-2.86-.42-4.24-.44-2-3.16-2.88-4.37-1.29a6.86,6.86,0,0,0-.92,3.45c-.38,4.43-.34,4.33-4.8,4.4a3.5,3.5,0,0,0-2.74,1.7A3.62,3.62,0,0,0,742,132a5.27,5.27,0,0,0,3.66,1.15C749.36,132.67,753,131.3,756.08,133.32Zm24-14.58a6.67,6.67,0,0,0-6.76,6.61,6.76,6.76,0,1,0,13.53,0A6.75,6.75,0,0,0,780.07,118.73Zm-51.14,6.89a6.87,6.87,0,0,0-6.76-6.72,6.8,6.8,0,0,0-6.71,7,6.6,6.6,0,0,0,6.85,6.53A6.75,6.75,0,0,0,728.94,125.62Z" transform="translate(-473.07 -28.55)"/><path class="cls-1" d="M532.15,425.39l.86-4.46c.49-2.56-.41-3.79-3-4-.28,0-.57,0-.86,0-2.21,0-4.55.17-5.28-2.69a7.54,7.54,0,0,1,3-7.44c1.21-.83,2.73-2.06,2.89-3.28.11-.85-1.68-2.25-2.89-2.92-4-2.21-4.39-7-.72-10.09s3.58-3.14,0-6.37c-2.22-2-1.9-7.9.6-9.48a3.61,3.61,0,0,1,2.16-.26c16.15,1.82,32.38,3.15,48.42,5.64,24.5,3.81,48.89,8.34,73.3,12.74,7.94,1.43,15.8,3.34,23.68,5.14a40.33,40.33,0,0,0,19.7-.57c20.67-5.46,41.29-11.21,62.17-15.72,24.35-5.27,49.12-8.13,74-9.6,2.37-.14,4.74-.5,7.11-.44,5.3.13,10.05,7.5,7.9,12.34-.52,1.17-2,1.89-3,2.89-.74.77-2,1.73-1.88,2.46a4.3,4.3,0,0,0,2.12,2.59c3.64,2,5.44,4.83,5,8.45-.26,2.39-1.17,4.11-4,4.36-.94.08-2.41.93-2.56,1.66a4,4,0,0,0,1.11,3.16c2.05,1.88,3.67,3.81,3.52,6.8a5,5,0,0,1-5.56,5.09c-.76,0-1.51-.21-2.27-.24-2.47-.1-3.54,1.25-2.78,3.58.44,1.35,1.14,2.62,1.57,4,.67,2.11.28,4-1.71,5.24a4.65,4.65,0,0,1-5.82-.24c-.81-.65-1.5-1.45-2.27-2.16-2.29-2.11-3.72-1.84-5,.94-2.19,4.69-5.8,6.36-10.56,4.57a9.49,9.49,0,0,1-3.44-2.78c-2.73-3.14-4.7-3-6.28.76-1.06,2.54-2.42,4.51-5.47,4.65-3.2.15-5.91-.42-7.83-3.49-2.63-4.22-5-4-7.47.31-3.18,5.64-8.86,5.87-12.32.48-2.4-3.74-4.32-3.73-6.74,0a19.59,19.59,0,0,1-2,2.8,5.88,5.88,0,0,1-9.4-1,6.34,6.34,0,0,0-1-1.71c-1-.82-2.12-2.05-3.14-2s-2.1,1.4-2.65,2.44c-2.12,4.07-4.7,5.68-8.35,4.35-1.43-.52-2.61-1.94-3.7-3.14-.74-.82-1-2.07-1.71-2.93a2.65,2.65,0,0,0-4.52.27c-.64.94-1.12,2-1.7,3a9.65,9.65,0,0,1-8.72,5c-3.77,0-6-2.14-7.78-5.31-.69-1.26-2.21-3-3.22-2.91-1.17.1-2.5,1.79-3.21,3.09-1.74,3.17-3.76,5.72-7.75,5.81-4.89.11-7.42-1.68-9.44-6.2-.59-1.31-2-2.25-3-3.36-.94,1.08-2.2,2-2.75,3.27-1.73,3.91-4.18,6-7.88,5.91-4-.1-7.41-1.39-9.21-5.48-.75-1.7-.7-4.26-3.36-4.45s-2.55,2.43-3.48,3.91c-2,3.1-4.68,4.74-8.32,4.47a8.1,8.1,0,0,1-7.57-5.55,4.33,4.33,0,0,0-.85-1.78c-.78-.68-1.83-1.62-2.66-1.52a3.46,3.46,0,0,0-2.18,2.12c-1.89,5.73-3.69,7.19-9.47,6.18-1.92-.34-3.73-2-5.31-3.32-.95-.81-1.33-2.27-2-3.41-1.52-2.54-3.37-2.59-5-.12-.73,1.11-1.29,2.34-2.08,3.4a6.74,6.74,0,0,1-11.68-1c-.9-1.75-1-4.39-3.69-4.56-2.56-.16-2.65,2.37-3.64,3.84-3.22,4.77-10.7,4.36-14-.7a42.53,42.53,0,0,0-3.84-4.52c-1.37,1.32-2.84,2.55-4.1,4-3.89,4.4-12.81,3.19-15.44-2.15-2.3-4.68-2.29-4.67-6.86-2.07a15.64,15.64,0,0,1-2.84,1.3C536.88,434.57,532.16,431,532.15,425.39Z" transform="translate(-473.07 -28.55)"/><path class="cls-1" d="M570.95,440c7.38,6.84,12,7.28,21.61,2.14,6.22,6.17,13.73,6.6,20.28-.06,2.78,3.49,6.31,5.67,10.92,5.7,4.33,0,8.33-.81,11.34-4.34,7.33,6.12,14.5,6.5,21.53.07,9.17,7.68,12.82,7.91,23.93,1.58,7.9,6.7,16.52,6.79,23.5-.68,7.27,7.14,16.81,6.05,23.35-1.11,8,5.69,10.27,5.72,19.12.21,7.95,5,11.15,4.78,18.46-1.32,8.73,5.4,11.69,5.23,19.73-1.12,9.09,5.57,13.82,5.33,20.5-1,8.85,4.18,14.1,3.66,19.77-1.78,2.79.62,5.47,1.83,8,1.62s4.84-1.86,7.66-3.06a22.48,22.48,0,0,1,1,3.6c1.17,8.72-1.92,15.81-8.38,21.62-7,6.31-15.66,8.64-24.6,10.45-12.75,2.59-25.69,2.89-38.6,3.31-21,.68-42,1.27-63,1.45-23.1.19-46.21.34-69.29-.36s-46.33-2.36-69.48-3.82A73.84,73.84,0,0,1,543,467c-10.19-4.51-15.14-12-14.49-22.22a16.63,16.63,0,0,1,.67-3.92c1.32-4.18,2-4.18,6.2-3.29a27.48,27.48,0,0,0,9.16,0c1.88-.25,3.12-.63,4.65,1.14C554.54,444.89,563.06,445.36,570.95,440Z" transform="translate(-473.07 -28.55)"/><path class="cls-1" d="M843.49,336.75c-2.47-.26-5.91-.43-9.27-1-9.23-1.63-17.05,1-23.86,7.25-6.28,5.78-12.72,6.67-20.42,2.87-3.74-1.85-7.3-4.1-11.12-5.77-7.29-3.18-11.31-2.29-17,3.36-1.34,1.34-2.53,2.84-3.85,4.2-3.19,3.31-6.89,3.7-10.76,1.2-2.15-1.39-4.27-2.85-6.48-4.15-5.36-3.14-10.63-3-15.77.59a31.19,31.19,0,0,1-4.6,2.82c-6,2.79-11.41,1.79-16.5-2.25a34.72,34.72,0,0,0-6.58-4.44c-9.09-4.27-17.39-2.35-25.41,6-3.86,4-8.33,5.32-13.45,3.79a34.27,34.27,0,0,1-8.7-4.16c-7.29-4.76-12.94-4.79-20.24.18-5.21,3.56-11.06,5.28-17,2.89-3.57-1.43-6.73-4.23-9.65-6.87-6.66-6-13.34-6.77-20.91-1.81-2.54,1.67-5,3.4-7.6,5-5.79,3.71-10.33,3.36-15.55-1.2-2.43-2.13-4.77-4.37-7.21-6.47a15,15,0,0,0-13.82-3.48c-3,.71-6,1.72-9.05,2.46a18.38,18.38,0,0,1-5,.68c-3.62-.15-5.59-2.92-4.88-6.49s6.51-9.47,10.11-10.13a3.35,3.35,0,0,1,1.65.19c13.15,4.73,26.94,5.54,40.68,6.57,47.07,3.54,94.21,4.32,141.38,3.45,28-.52,56.08-1.56,83.88-5.72,12.76-1.91,25.64-3.41,37.85-8a10.6,10.6,0,0,0,2.61-1.12c3-2.2,5.38-1.58,7.42,1.25,2.21,3.06,4.85,5.92,6.41,9.29C853.28,333.09,850.31,336.94,843.49,336.75Z" transform="translate(-473.07 -28.55)"/><path class="cls-1" d="M836.47,358.77c1.71,5.44.2,7.28-5.38,7.84-17.77,1.78-35.53,3.63-53.25,5.82C751.63,375.67,726.39,383.32,701,390c-3.95,1-7.91,2-11.85,3.09-5.26,1.42-10.38.24-15.5-.78-23.85-4.72-47.62-10-71.59-14-19.09-3.22-38.43-5-57.66-7.36-4.71-.59-9.43-1.13-14.14-1.74-2-.27-4.08-1.26-3.9-3.39a7,7,0,0,1,2.75-4.45c2.07-1.51,4.42-1.47,7.21-.75a137.43,137.43,0,0,0,21,3.87c11.53,1.1,23.14,1.35,34.69,2.19a652.86,652.86,0,0,0,71.51.81c5.88-.22,11.78-.61,17.61-1.41,2.83-.39,5.5-2.66,8.25-2.67s5.4,2.32,8.21,2.62c6,.64,12.13.72,18.21.87,26.48.64,52.78-2.25,79.11-4.29C808.63,361.53,822.42,360.07,836.47,358.77Z" transform="translate(-473.07 -28.55)"/><path class="cls-1" d="M686.82,344.46c0,3.69.18,6.92,0,10.12-.33,4.61-1.29,5.71-5.85,6.13-7.66.71-15.34,1.4-23,1.63a900.23,900.23,0,0,1-93.18-2.44c-8-.6-16-1.92-24-3.27-4.61-.78-5-1.62-5.14-6.34a27.14,27.14,0,0,1,.11-4c.21-1.79.22-4.9,1-5.1a16.2,16.2,0,0,1,8-.28c2.15.54,4,2.41,5.84,3.91,2.2,1.8,4.14,3.93,6.34,5.73a15.59,15.59,0,0,0,18.58,1.4c2.86-1.69,5.52-3.72,8.4-5.36a29.3,29.3,0,0,1,6.48-2.78,7.23,7.23,0,0,1,7.55,2.1c1.78,1.84,3.75,3.5,5.71,5.16a22.59,22.59,0,0,0,28,1.21,25.21,25.21,0,0,1,4.64-2.73c3.29-1.37,6.29-.91,9.41,1.14a47,47,0,0,0,10.88,5.5c7.18,2.36,13.7.85,18.94-4.91A22.7,22.7,0,0,1,686.82,344.46Z" transform="translate(-473.07 -28.55)"/><path class="cls-1" d="M843.27,342.1c1.11,6.55-.83,9.92-7,10.72q-19.21,2.49-38.51,4.25c-16.18,1.47-32.37,3-48.59,3.71-15.65.68-31.34.56-47,.37-9.36-.11-9.84-1-9.75-10.38,0-1.69,0-3.38,0-6.07,2.79,1.69,5.09,2.73,7,4.27,9.55,7.79,18.16,8.12,28.27.89,3.87-2.76,7-2.89,11.08-.33,1.93,1.21,3.76,2.58,5.66,3.83a13.15,13.15,0,0,0,17.52-2.15c1.42-1.54,2.72-3.18,4.17-4.68,2.7-2.79,5.87-3.85,9.55-2.06s7.53,3.63,11.15,5.69c8.8,5,20.19,3.93,27.08-3.22,5.29-5.49,12-7.4,19.59-5.93C836.71,341.63,840,341.75,843.27,342.1Z" transform="translate(-473.07 -28.55)"/><path class="cls-1" d="M528.16,153.6c-1,1.09-1.89,2.08-2.84,3-1.77,1.7-3.59,3.34-5.76,5.35l-7.83-9.71,10.47-6.52Z" transform="translate(-473.07 -28.55)"/><path class="cls-1" d="M531.18,171.46c2.43-3.35,4.44-6.18,6.56-8.94a1.94,1.94,0,0,1,1.67-.55c2.42.71,4.8,1.58,7.46,2.49-1,3.4-1.83,6.68-2.93,9.87a2.54,2.54,0,0,1-2.15,1.24C538.4,174.41,535.1,173,531.18,171.46Z" transform="translate(-473.07 -28.55)"/><path d="M618.78,237.27c-1.22,2-2.05,4.51-3.73,6a63.74,63.74,0,0,1-10.48,7.81,13.84,13.84,0,0,1-7.29,1.69c-5.12-.24-8-5.65-5.71-10.28a8.87,8.87,0,0,1,2.14-3c4-3.29,8-6.8,12.37-9.56C611.3,226.7,618.16,230.85,618.78,237.27Zm-20.31,10.33c.68-.11,1-.07,1.24-.21,4.14-3,8.31-5.88,12.32-9a2.86,2.86,0,0,0,0-2.78,4.16,4.16,0,0,0-3.31-.69,13.22,13.22,0,0,0-3.78,2.48c-2.53,2-5.09,4-7.43,6.18a4.25,4.25,0,0,0-.78,3.07C596.74,247.06,598,247.39,598.47,247.61Z" transform="translate(-473.07 -28.55)"/><path d="M656.92,275.31c-1.32,5-2.88,10.89-7,15.61a8.25,8.25,0,0,1-9.68,1.74c-3-1.53-5.26-5.69-4.12-9.21a80.29,80.29,0,0,1,6-14,7.64,7.64,0,0,1,9.42-3.34C654.79,267.26,656.95,270.6,656.92,275.31Zm-4.9-.63c-1-1.41-1.55-3-2.34-3.12a3.76,3.76,0,0,0-3.22,1.41c-1.78,3.42-3.2,7-4.68,10.61a2.75,2.75,0,0,0,0,1.93c.38.89.93,2.09,1.67,2.32a2.92,2.92,0,0,0,2.66-.95C648.16,282.91,650,278.81,652,274.68Z" transform="translate(-473.07 -28.55)"/><path d="M715.53,255.44c1.13-2.1,1.76-4.83,3.48-6.18a69.5,69.5,0,0,1,12-7.5,8.09,8.09,0,0,1,8.58,13.7,59.4,59.4,0,0,1-12.42,7.31C721.43,265.16,716.13,261.47,715.53,255.44Zm8.49,2.71c4.78-2,9.53-3.8,12.78-8a2.94,2.94,0,0,0,.11-2.78,2.91,2.91,0,0,0-2.7-.79c-4,2.2-8,4.53-11.76,7.1-.64.43-.51,2.26-.38,3.41C722.1,257.47,723.23,257.74,724,258.15Z" transform="translate(-473.07 -28.55)"/><path d="M547.28,263.13a9.6,9.6,0,0,1,7.36,3.74,86.49,86.49,0,0,1,6.8,10.49c2.09,3.9,1.1,8-1.9,10.3a8,8,0,0,1-10.48-.52,30.7,30.7,0,0,1-9.39-14.35A7.64,7.64,0,0,1,547.28,263.13Zm.52,5.55c-2.66,0-3.78,1.74-2.55,3.9a75.52,75.52,0,0,0,6.94,10c.64.79,2.52.56,3.84.8.14-1.3.83-2.89.31-3.83a85.12,85.12,0,0,0-6.06-9.27A7.15,7.15,0,0,0,547.8,268.68Z" transform="translate(-473.07 -28.55)"/><path d="M806,282a8.24,8.24,0,0,1-12.17,6.71,58.3,58.3,0,0,1-11.7-8.89,7.92,7.92,0,0,1-1-10.67c1.9-2.67,6.39-3.94,10.09-2.28a33.65,33.65,0,0,1,13.06,10.71C805.28,278.74,805.5,280.47,806,282Zm-18.49-10.63c-.79.55-2,1-2.1,1.58a3.81,3.81,0,0,0,.65,3.07,89.84,89.84,0,0,0,9.55,7.52c.91.6,2.73-.17,4.13-.31-.32-1.35-.21-3.14-1-4a69.92,69.92,0,0,0-7.64-6.35A16.82,16.82,0,0,0,787.55,271.32Z" transform="translate(-473.07 -28.55)"/><path d="M680.49,130.58l-15,1.48c-.75.08-1.5.27-2.25.3-1.74.08-3.34-.23-3.55-2.36s1-3,2.83-3.23c5.75-.61,11.5-1.29,17.28-1.62a95.08,95.08,0,0,1,9.67.45c2,.09,3.71.8,3.59,3.1s-2.08,2.63-4,2.54c-2.85-.12-5.69-.28-8.53-.43Z" transform="translate(-473.07 -28.55)"/><path d="M666.56,110.48q11.92,2.55,23.84,5.1c1.83.39,2.92,1.5,2.51,3.44s-2.1,2.28-3.8,1.93c-5.85-1.17-11.66-2.53-17.52-3.59a78.48,78.48,0,0,0-8.49-.73c-1.9-.13-3.43-.71-3.39-2.95s1.78-2.62,3.59-2.67c1,0,2.08,0,3.12,0Z" transform="translate(-473.07 -28.55)"/><path d="M756.08,133.32c-3.1-2-6.72-.64-10.39-.12A5.27,5.27,0,0,1,742,132a3.62,3.62,0,0,1-1.09-3.11,3.5,3.5,0,0,1,2.74-1.7c4.46-.07,4.42,0,4.8-4.4a6.86,6.86,0,0,1,.92-3.45c1.22-1.59,3.94-.75,4.37,1.29.29,1.38.18,2.84.42,4.24.27,1.59.82,3,3,2.48s4.23-1,4.62,1.91-1.9,3.34-4,3.79C757.38,133.17,757,133.19,756.08,133.32Z" transform="translate(-473.07 -28.55)"/><path d="M780.07,118.73a6.75,6.75,0,0,1,6.77,6.61,6.76,6.76,0,1,1-13.53,0A6.67,6.67,0,0,1,780.07,118.73Z" transform="translate(-473.07 -28.55)"/><path d="M728.94,125.62a6.75,6.75,0,0,1-6.62,6.8,6.6,6.6,0,0,1-6.85-6.53,6.8,6.8,0,0,1,6.71-7A6.87,6.87,0,0,1,728.94,125.62Z" transform="translate(-473.07 -28.55)"/><path class="cls-1" d="M598.47,247.61c-.43-.22-1.73-.55-1.76-1a4.25,4.25,0,0,1,.78-3.07c2.34-2.21,4.9-4.18,7.43-6.18a13.22,13.22,0,0,1,3.78-2.48,4.16,4.16,0,0,1,3.31.69,2.86,2.86,0,0,1,0,2.78c-4,3.13-8.18,6-12.32,9C599.5,247.54,599.16,247.5,598.47,247.61Z" transform="translate(-473.07 -28.55)"/><path class="cls-1" d="M652,274.68c-2,4.13-3.85,8.23-6,12.2a2.92,2.92,0,0,1-2.66.95c-.74-.23-1.29-1.44-1.67-2.32a2.75,2.75,0,0,1,0-1.93c1.48-3.57,2.9-7.19,4.68-10.61a3.76,3.76,0,0,1,3.22-1.41C650.46,271.69,651,273.27,652,274.68Z" transform="translate(-473.07 -28.55)"/><path class="cls-1" d="M724,258.15c-.8-.41-1.92-.68-2-1.08-.13-1.14-.26-3,.38-3.41,3.79-2.57,7.74-4.91,11.76-7.1a2.91,2.91,0,0,1,2.7.79,2.94,2.94,0,0,1-.11,2.78C733.55,254.35,728.8,256.2,724,258.15Z" transform="translate(-473.07 -28.55)"/><path class="cls-1" d="M547.8,268.68a7.15,7.15,0,0,1,2.49,1.6,85.12,85.12,0,0,1,6.06,9.27c.51.94-.18,2.54-.31,3.83-1.31-.24-3.2,0-3.84-.8a75.52,75.52,0,0,1-6.94-10C544,270.42,545.14,268.66,547.8,268.68Z" transform="translate(-473.07 -28.55)"/><path class="cls-1" d="M787.55,271.32a16.82,16.82,0,0,1,3.55,1.53,69.92,69.92,0,0,1,7.64,6.35c.84.84.73,2.62,1,4-1.4.14-3.22.92-4.13.31a89.84,89.84,0,0,1-9.55-7.52,3.81,3.81,0,0,1-.65-3.07C785.56,272.29,786.76,271.88,787.55,271.32Z" transform="translate(-473.07 -28.55)"/></svg>